/* XPM */
static char * duke_xpm[] = {
"24 24 66 1",
" 	c None",
".	c #404040",
"+	c #303030",
"@	c #202020",
"#	c #333333",
"$	c #000000",
"%	c #595959",
"&	c #1A1A1A",
"*	c #808080",
"=	c #101010",
"-	c #484848",
";	c #604848",
">	c #300000",
",	c #373737",
"'	c #606060",
")	c #181818",
"!	c #242424",
"~	c #C76868",
"{	c #FF9F9F",
"]	c #FF3030",
"^	c #CF3030",
"/	c #401818",
"(	c #2B2B2B",
"_	c #683838",
":	c #EFB0B0",
"<	c #FF7F7F",
"[	c #FF6060",
"}	c #FF0000",
"|	c #CF0000",
"1	c #4D4D4D",
"2	c #626262",
"3	c #A05858",
"4	c #FF8080",
"5	c #B80000",
"6	c #505050",
"7	c #A0A0A0",
"8	c #883030",
"9	c #EF0000",
"0	c #980000",
"a	c #282828",
"b	c #707070",
"c	c #9F9F9F",
"d	c #FFFFFF",
"e	c #603030",
"f	c #DF0000",
"g	c #A00000",
"h	c #984848",
"i	c #CFCFCF",
"j	c #BFBFBF",
"k	c #C0C0C0",
"l	c #C7BFBF",
"m	c #880000",
"n	c #803030",
"o	c #B0A8A8",
"p	c #343434",
"q	c #E7E7E7",
"r	c #ACACAC",
"s	c #888888",
"t	c #D0D0D0",
"u	c #494949",
"v	c #F7F7F7",
"w	c #DCDCDC",
"x	c #848484",
"y	c #3C3C3C",
"z	c #9C9C9C",
"A	c #666666",
"             .          ",
"            +@          ",
"           #$$%         ",
"          &$$$$         ",
"          @$$$$         ",
"         %$$$$$@        ",
"         $$$$$$@*       ",
"        .$$$$$$=.       ",
"        &$$-;>$$,       ",
"       ')!~{]^/$+       ",
"       ($_:<[}|$$1      ",
"     *2=$34[}}5$$'*     ",
"    .@)678[}}90a@)@.    ",
"   +(*bcdef}9ghij**(+   ",
"  *$$ *kdlem0nodd7 ')*  ",
"''))' pqddqrrqddd. '))''",
"&@$$$,bdddddddddds,$$$@&",
" =$$$$7ddddddddddt$$$$= ",
"2u#$ &tddddddddddt& $#u2",
"  *$ $qddvtkktvddt$ $*  ",
"  *' &ddwxa@@aywdt& '*  ",
"     &v7+@    *ykz*     ",
"     $b.A      1+-      ",
"     ''A        1'      "};
