/* XPM */
static char * duke_up_xpm[] = {
"24 24 72 1",
" 	c None",
".	c #404040",
"+	c #303030",
"@	c #202020",
"#	c #333333",
"$	c #000000",
"%	c #595959",
"&	c #1A1A1A",
"*	c #808080",
"=	c #080808",
"-	c #101010",
";	c #484848",
">	c #604848",
",	c #300000",
"'	c #373737",
")	c #606060",
"!	c #181818",
"~	c #242424",
"{	c #C76868",
"]	c #FF9F9F",
"^	c #FF3030",
"/	c #CF3030",
"(	c #401818",
"_	c #2B2B2B",
":	c #683838",
"<	c #EFB0B0",
"[	c #FF7F7F",
"}	c #FF6060",
"|	c #FF0000",
"1	c #CF0000",
"2	c #4D4D4D",
"3	c #494949",
"4	c #707070",
"5	c #626262",
"6	c #A05858",
"7	c #FF8080",
"8	c #B80000",
"9	c #505050",
"0	c #A0A0A0",
"a	c #883030",
"b	c #EF0000",
"c	c #980000",
"d	c #282828",
"e	c #383838",
"f	c #0C0C0C",
"g	c #6E6E6E",
"h	c #9F9F9F",
"i	c #FFFFFF",
"j	c #603030",
"k	c #DF0000",
"l	c #A00000",
"m	c #984848",
"n	c #CFCFCF",
"o	c #EFEFEF",
"p	c #C0C0C0",
"q	c #C7BFBF",
"r	c #880000",
"s	c #803030",
"t	c #B0A8A8",
"u	c #888888",
"v	c #0A0A0A",
"w	c #343434",
"x	c #E7E7E7",
"y	c #ACACAC",
"z	c #B8B8B8",
"A	c #D0D0D0",
"B	c #F7F7F7",
"C	c #DCDCDC",
"D	c #848484",
"E	c #3C3C3C",
"F	c #9C9C9C",
"G	c #666666",
"             .          ",
"            +@          ",
"           #$$%         ",
"          &$$$$         ",
"          @$$$$      @  ",
"         %$$$$$@    *=@ ",
"         $$$$$$@*    $& ",
"        .$$$$$$-.    $@.",
"        &$$;>,$$'   *$$$",
"       )!~{]^/($+   *$$!",
"       _$:<[}|1$$2  3..4",
"     *5-$67}||8$$) @9   ",
"    .@!90a}||bcdef g    ",
"   +_*4hijk|blmnoe-.    ",
"  *$$ *piqjrcstiiuv     ",
"))!!) wxiixyyxiii0)     ",
"&@$$$'4iiiiiiiiiiz$     ",
" -$$$$0iiiiiiiiiiA$     ",
"53#$ &AiiiiiiiiiiA$     ",
"  *$ $xiiBAppABiiA$     ",
"  *) &iiCDd@@dECiA$     ",
"     &B0+@    *EpF*     ",
"     $4.G      2+;      ",
"     ))G        2)      "};
